<svg xmlns="http://www.w3.org/2000/svg" fill="none" viewBox="0 0 81 23"><g clip-path="url(#clip0_3802_10975)"><path fill="#292567" d="M6.406 12.8a6.396 6.396 0 0 0 6.395-6.394C12.8 2.876 9.936 0 6.406 0A6.41 6.41 0 0 0 0 6.406a6.39 6.39 0 0 0 6.394 6.395"/><path fill="#C9252C" d="M12.697 5.221c-.322.196-4.75 7.177-4.75 7.177-1.23.368-2.542.115-2.542.115l4.865-6.866c1.139-1.61 1.898-1.898 1.955-1.91a4 4 0 0 0-.264-.505c-1.277.322-3.048 1.828-3.048 1.828L2.91 9.787v-2.3l5.509-3.841c1.564-1.047 2.978-1.15 3.047-1.162a6 6 0 0 0-.483-.563c-.069 0-2.357.195-8.062 2.668V3.312s4.796-1.909 7.683-1.748A6.36 6.36 0 0 0 6.417 0 6.403 6.403 0 0 0 0 6.406a6.4 6.4 0 0 0 6.406 6.406 6.39 6.39 0 0 0 6.395-6.406c0-.403-.035-.794-.116-1.173"/><path fill="#292567" d="M20.357 8.016c0 .863-1.15.863-1.15.863h-.955V7.142h.863c1.322 0 1.242.874 1.242.874m-2.105-4.071c.632 0 1.058.126 1.058.126.506.15.46.667.46.667 0 .955-1.518.794-1.518.794zm4.416 4.244c0-1.91-1.77-2.07-1.77-2.07 1.172-.53.93-1.898.93-1.898 0-2.082-2.53-1.967-2.53-1.967H16.01v8.315h3.703c3.14 0 2.968-2.38 2.968-2.38m4.243-.748.92-2.6.92 2.6zm-.322-5.21-3.37 8.315h2.438l.598-1.426h3.117l.552 1.426h2.484l-3.29-8.315zM48.28 6.222l3.45-3.98h-2.817l-2.748 3.382V2.243H43.91v8.315h2.255V7.004l2.91 3.554h3.012zm-8.498-3.979v5.049l-4.152-5.05h-2.266v8.316h2.266V5.52l4.151 5.038h2.266V2.243zm34.732 5.198.909-2.6.92 2.6zm-.322-5.21-3.37 8.315h2.438l.599-1.426h3.116l.552 1.426h2.484l-3.289-8.315zm-14.87.012h-2.266v8.315h2.266zm8.268 0v5.049l-4.151-5.05h-2.266v8.316h2.266V5.52l4.152 5.038h2.265V2.243zM3.473 20.104l-.506-2.094-1.334 2.093zm.127.483H1.323l-.667 1.058H0l2.772-4.233h.598l1.07 4.233h-.6l-.253-1.058zm8.453-3.175-.84 4.233h-.586l.62-3.06-2 2.554h-.288l-1.058-2.611-.62 3.117h-.576l.84-4.233h.494l1.173 2.98 2.323-2.98zm.966 2.393h2.07c.035-.587-.345-.909-.908-.909s-1.012.357-1.162.909m-.058.425v.035c0 .586.322.908 1.013.908.402 0 .759-.15.989-.368l.253.414c-.31.3-.805.46-1.288.46-.955 0-1.542-.54-1.542-1.391 0-1.093.76-1.887 1.806-1.887.863 0 1.438.518 1.438 1.38 0 .15-.023.3-.046.426H12.95zm8.856-.759c0 .115-.023.241-.046.38l-.356 1.794h-.587l.357-1.794q.034-.156.034-.276c0-.415-.23-.645-.713-.645-.587 0-.989.323-1.127 1.001l-.345 1.714h-.587l.368-1.794q.035-.138.035-.276c0-.415-.23-.645-.713-.645-.598 0-.99.334-1.127 1.024l-.334 1.69h-.586l.632-3.208h.552l-.08.402c.287-.299.678-.425 1.115-.425.506 0 .863.195 1.024.564.322-.38.77-.564 1.311-.564.725 0 1.162.38 1.162 1.058m3.76.345c0-.563-.345-.897-.954-.897-.725 0-1.254.564-1.254 1.357 0 .564.345.897.955.897.724 0 1.253-.563 1.253-1.357m.587-.034c0 1.104-.77 1.897-1.817 1.897-.564 0-.978-.218-1.173-.62l-.127.586h-.552l.897-4.486h.587l-.334 1.656a1.62 1.62 0 0 1 1.104-.402c.817 0 1.415.517 1.415 1.38m1.093.012h2.07c.034-.587-.345-.909-.909-.909-.563 0-1.012.357-1.161.909m-.058.425v.035c0 .586.322.908 1.012.908.403 0 .76-.15.99-.368l.252.414c-.31.3-.805.46-1.288.46-.954 0-1.541-.54-1.541-1.391 0-1.093.76-1.887 1.806-1.887.862 0 1.437.518 1.437 1.38 0 .15-.023.3-.046.426h-2.633zm5.497-1.817-.114.564h-.15c-.644 0-1.07.333-1.208 1.08l-.322 1.6h-.586l.632-3.21h.552l-.092.483c.288-.368.702-.506 1.277-.506m4.543 1.392c0-.563-.345-.897-.955-.897-.724 0-1.253.564-1.253 1.357 0 .564.345.897.954.897.725 0 1.254-.563 1.254-1.357m-2.795.483c0-1.081.782-1.886 1.886-1.886.92 0 1.507.54 1.507 1.38 0 1.093-.782 1.898-1.875 1.898-.908 0-1.506-.552-1.506-1.392m5.175-2.116-.058.253h.932l-.092.483h-.908l-.553 2.726h-.586l.552-2.726h-.552l.092-.483h.552l.057-.3c.127-.643.53-1.011 1.185-1.011.265 0 .518.069.667.195l-.241.426a.66.66 0 0 0-.426-.15c-.345 0-.54.184-.633.587m2.232 3.002.264-.483c.322.299.851.483 1.369.483.69 0 1.138-.265 1.138-.725 0-.886-2.173-.425-2.173-1.783 0-.805.724-1.31 1.76-1.31.517 0 1.011.126 1.356.356l-.241.494c-.31-.23-.725-.333-1.15-.333-.702 0-1.139.299-1.139.747 0 .886 2.174.472 2.174 1.76 0 .828-.736 1.323-1.794 1.323-.644 0-1.277-.219-1.587-.518m6.774-1.38c0-.563-.345-.897-.955-.897-.724 0-1.254.564-1.254 1.357 0 .564.346.909.955.909.725 0 1.254-.564 1.254-1.357m.862-1.38-.632 3.208h-.552l.08-.39c-.287.275-.667.425-1.127.425-.816 0-1.414-.518-1.414-1.38 0-1.105.77-1.887 1.817-1.887.552 0 .954.196 1.161.576l.115-.541h.587zm1.368-1.288h.587l-.897 4.485h-.586zm1.53.31c0-.219.173-.403.414-.403.208 0 .369.161.369.334 0 .241-.173.414-.426.414-.207 0-.368-.161-.368-.345m-.092.966h.587l-.633 3.209h-.587zm6.774 1.035c0 .115-.023.241-.046.38l-.357 1.794h-.586l.356-1.794q.035-.156.035-.276c0-.415-.23-.645-.702-.645-.586 0-.989.323-1.127 1.001l-.345 1.714h-.586l.368-1.794q.034-.138.034-.276c0-.415-.23-.645-.713-.645-.598 0-.989.334-1.127 1.024l-.345 1.69h-.587l.633-3.208h.552l-.08.402c.287-.299.678-.425 1.115-.425.506 0 .863.195 1.024.564.322-.38.77-.564 1.31-.564.725 0 1.162.38 1.162 1.058m5.762.035h.587l-.334 1.667c-.402.334-.966.53-1.54.53-1.266 0-2.025-.725-2.025-1.783 0-1.415 1.012-2.554 2.61-2.554.737 0 1.3.23 1.634.656l-.437.368c-.288-.334-.679-.483-1.22-.483-1.207 0-1.977.874-1.977 1.978 0 .76.506 1.288 1.483 1.288.357 0 .667-.092.955-.264l.276-1.392zm3.6-1.093-.103.564h-.15c-.644 0-1.07.333-1.208 1.08l-.322 1.6h-.586l.632-3.21h.553l-.092.483c.287-.368.69-.506 1.265-.506m2.84 1.392c0-.563-.345-.897-.954-.897-.725 0-1.254.564-1.254 1.357 0 .564.345.897.955.897.724 0 1.253-.563 1.253-1.357m-2.794.483c0-1.081.782-1.886 1.886-1.886.92 0 1.506.54 1.506 1.38 0 1.093-.782 1.898-1.874 1.898-.909 0-1.507-.552-1.507-1.392m7.464-1.863-.632 3.209h-.552l.08-.414c-.299.299-.701.448-1.15.448-.702 0-1.15-.39-1.15-1.08 0-.116.011-.23.034-.369l.357-1.794h.587l-.357 1.806a1.2 1.2 0 0 0-.034.276c0 .414.241.644.736.644.61 0 1.035-.334 1.173-1.024l.333-1.702h.587zm3.543 1.38c0-.563-.346-.897-.955-.897-.725 0-1.254.564-1.254 1.357 0 .564.345.897.955.897.724 0 1.254-.563 1.254-1.357m.586-.034c0 1.104-.77 1.897-1.817 1.897-.552 0-.955-.207-1.162-.575l-.333 1.714H76.1l.874-4.382h.552l-.08.402c.287-.276.667-.425 1.127-.425.817 0 1.415.517 1.415 1.38"/></g><defs><clipPath id="clip0_3802_10975"><path fill="#fff" d="M0 0h80.011v22.818H0z"/></clipPath></defs></svg>