<svg width="63" height="80" viewBox="0 0 63 80" fill="none" xmlns="http://www.w3.org/2000/svg">
<g clip-path="url(#clip0_3802_10761)">
<path d="M4.69432 26.7229C4.69432 24.6303 4.92055 22.6225 5.37301 20.6713C6.70213 14.761 11.453 6.84298 19.9367 6.84298C31.8422 6.84298 29.9192 26.0442 12.6407 22.1418C14.4506 25.4787 19.9933 35.6873 22.3122 39.5332C28.5618 49.9398 40.4107 52.6263 47.3674 48.3844C42.9276 51.6365 37.4697 53.5595 31.5311 53.5595C16.7129 53.5595 4.69432 41.541 4.69432 26.7229ZM43.2104 1.92248C43.2104 1.92248 43.1538 1.92248 43.0972 1.92248C42.9558 1.92248 42.8144 2.0356 42.8144 2.20527C42.8144 2.31838 42.871 2.40322 42.9841 2.45978C52.0617 6.75815 58.3679 16.0053 58.3679 26.7512C58.3679 29.8902 57.8306 32.8877 56.8408 35.6873C54.9744 41.2299 48.5268 42.559 44.3132 35.5176C43.5497 34.2451 39.1665 26.016 37.8373 23.5557C58.3962 19.625 46.6321 -6.81565 20.5871 1.66797C20.3326 1.75281 20.3892 2.09215 20.6154 2.0356C44.6526 -3.11113 48.4137 23.2446 28.9012 24.0647C31.0786 27.9106 34.7266 34.2734 36.1972 36.875C40.1279 43.8881 46.7452 45.4435 52.8818 42.1066C53.3908 41.8238 53.815 41.5127 54.0695 41.2299C53.617 41.9369 53.1363 42.6439 52.599 43.2943C49.969 46.3767 38.9119 50.0812 31.1918 37.5537C29.4385 34.6975 25.1118 26.9209 23.3868 23.5557C38.7705 23.7254 41.3439 4.60896 25.0269 3.30814C17.9289 2.71429 6.4759 7.7479 1.92297 20.3885C0.678697 23.7537 0 27.4016 0 31.191C0 48.5824 14.1112 62.6935 31.5028 62.6935C48.8944 62.6935 63.0057 48.5824 63.0057 31.191C63.0057 17.9282 54.8048 6.5602 43.1821 1.92248" fill="#009E5E"/>
<path d="M7.89089 74.2877H6.81629V71.6012H8.03228C9.16344 71.6012 9.84214 72.082 9.84214 72.9021C9.84214 73.7221 9.10689 74.2877 7.89089 74.2877ZM9.61591 75.0512C10.6905 74.7967 11.4258 73.9484 11.4258 72.8738C11.4258 70.5549 9.55935 70.2439 7.69294 70.2439H5.28922V79.8021H6.81629V75.6451H7.55154C8.25852 75.6451 8.65442 75.6451 9.05033 76.5217L10.5208 79.8303H12.2176L10.3794 75.9844C10.1249 75.4754 9.92698 75.2492 9.58763 75.0795M13.9143 79.8303H19.3439V78.473H15.4131V75.532H18.9763V74.1746H15.4131V71.6012H19.3439V70.2439H13.9143V79.8303ZM22.5677 72.6193C22.5677 71.5729 23.6706 71.4598 24.1231 71.4598C24.8017 71.4598 25.1694 71.5729 25.8764 71.8557L25.9612 71.9123L26.1874 70.4984H26.1309C25.5087 70.2439 24.7735 70.1307 24.0948 70.1307C22.2284 70.1307 20.9841 71.1488 20.9841 72.7607C20.9841 74.3725 22.2001 74.9664 23.303 75.4754C24.2362 75.8996 25.028 76.2955 25.028 77.2004C25.028 78.275 23.9817 78.6426 23.2747 78.6426C22.5111 78.6426 21.6062 78.3033 21.3517 78.1902H21.2386L21.0972 79.5758H21.1538C21.7759 79.8021 22.4263 80 23.105 80C25.339 80 26.6116 78.9537 26.6116 77.1156C26.6116 75.2775 25.2542 74.6271 24.1513 74.118C23.303 73.7221 22.5677 73.3545 22.5677 72.6193ZM35.6892 75.0512C35.6892 76.7197 34.8974 78.6426 32.6633 78.6426C30.4293 78.6426 29.6375 76.7197 29.6375 75.0512C29.6375 73.8918 30.0051 72.8738 30.6555 72.2234C31.1645 71.7143 31.8432 71.4598 32.635 71.4598C33.4268 71.4598 34.1055 71.7143 34.6428 72.2234C35.2933 72.8738 35.6609 73.8918 35.6609 75.0512M37.2445 75.0512C37.2445 72.082 35.4064 70.1025 32.635 70.1025C29.8637 70.1025 28.0256 72.082 28.0256 75.0512C28.0256 78.0205 29.8354 80 32.635 80C35.4347 80 37.2445 78.0488 37.2445 75.0512ZM44.8516 79.8303H46.6897V70.2721H45.1909V77.6529C44.9364 77.2287 41.147 70.2721 41.147 70.2721H39.1675V79.8303H40.6663V72.2799C40.9208 72.7041 44.8233 79.8303 44.8233 79.8303M54.4947 76.1824H50.9881C51.073 75.9844 52.6 72.1668 52.7414 71.8275C52.8828 72.1668 54.4099 75.9844 54.4947 76.1824ZM57.6054 79.8303L53.5615 70.2721H52.0344L47.9623 79.8303H49.5459C49.5459 79.8303 50.4508 77.568 50.5074 77.4549H55.0037L55.9652 79.8303H57.6054Z" fill="#F7922A"/>
</g>
<defs>
<clipPath id="clip0_3802_10761">
<rect width="63.0057" height="80" fill="white"/>
</clipPath>
</defs>
</svg>
